<svg xmlns="http://www.w3.org/2000/svg" viewBox="0 0 1200 800" width="1200" height="800">
  <!-- Night sky background -->
  <rect width="100%" height="100%" fill="#0A1929"/>
  
  <!-- Stars -->
  <g id="stars">
    <circle cx="100" cy="100" r="1" fill="#FFFFFF" opacity="0.8"/>
    <circle cx="200" cy="50" r="1.5" fill="#FFFFFF" opacity="0.7"/>
    <circle cx="300" cy="120" r="1" fill="#FFFFFF" opacity="0.9"/>
    <circle cx="400" cy="80" r="1.2" fill="#FFFFFF" opacity="0.8"/>
    <circle cx="500" cy="150" r="1" fill="#FFFFFF" opacity="0.7"/>
    <circle cx="600" cy="100" r="1.3" fill="#FFFFFF" opacity="0.9"/>
    <circle cx="700" cy="70" r="1" fill="#FFFFFF" opacity="0.8"/>
    <circle cx="800" cy="120" r="1.4" fill="#FFFFFF" opacity="0.7"/>
    <circle cx="900" cy="80" r="1" fill="#FFFFFF" opacity="0.9"/>
    <circle cx="1000" cy="150" r="1.2" fill="#FFFFFF" opacity="0.8"/>
    <circle cx="1100" cy="100" r="1" fill="#FFFFFF" opacity="0.7"/>
    <circle cx="150" cy="200" r="1.5" fill="#FFFFFF" opacity="0.9"/>
    <circle cx="250" cy="170" r="1" fill="#FFFFFF" opacity="0.8"/>
    <circle cx="350" cy="220" r="1.3" fill="#FFFFFF" opacity="0.7"/>
    <circle cx="450" cy="180" r="1" fill="#FFFFFF" opacity="0.9"/>
    <circle cx="550" cy="230" r="1.2" fill="#FFFFFF" opacity="0.8"/>
    <circle cx="650" cy="190" r="1" fill="#FFFFFF" opacity="0.7"/>
    <circle cx="750" cy="240" r="1.4" fill="#FFFFFF" opacity="0.9"/>
    <circle cx="850" cy="200" r="1" fill="#FFFFFF" opacity="0.8"/>
    <circle cx="950" cy="250" r="1.3" fill="#FFFFFF" opacity="0.7"/>
    <circle cx="1050" cy="210" r="1" fill="#FFFFFF" opacity="0.9"/>
    <circle cx="1150" cy="260" r="1.2" fill="#FFFFFF" opacity="0.8"/>
  </g>
  
  <!-- Moon -->
  <circle cx="950" cy="150" r="40" fill="#FFFACD" opacity="0.9"/>
  
  <!-- Mountains -->
  <path d="M0,800 L200,600 L300,700 L400,550 L600,750 L800,500 L1000,650 L1200,550 L1200,800 Z" fill="#0D2942"/>
  
  <!-- Hogwarts Castle Silhouette -->
  <path d="M400,800 L400,600 L430,600 L430,550 L450,530 L470,550 L470,600 L500,600 L500,550 L520,500 L540,550 L540,600 L560,600 L560,500 L575,480 L590,500 L590,600 L610,600 L610,550 L630,530 L650,550 L650,600 L670,600 L670,520 L690,500 L710,520 L710,600 L730,600 L730,580 L750,560 L770,580 L770,600 L800,600 L800,800 Z" fill="#0A1525"/>
  
  <!-- Main Castle Tower -->
  <path d="M550,500 L550,400 L560,390 L580,380 L600,390 L610,400 L610,500 L550,500 Z" fill="#0A1525"/>
  
  <!-- Tower Spires -->
  <path d="M450,550 L450,470 L460,440 L470,470 L470,550 L450,550 Z" fill="#0A1525"/>
  <path d="M520,500 L520,420 L530,390 L540,420 L540,500 L520,500 Z" fill="#0A1525"/>
  <path d="M575,480 L575,400 L585,370 L595,400 L595,480 L575,480 Z" fill="#0A1525"/>
  <path d="M630,530 L630,450 L640,420 L650,450 L650,530 L630,530 Z" fill="#0A1525"/>
  <path d="M690,500 L690,420 L700,390 L710,420 L710,500 L690,500 Z" fill="#0A1525"/>
  <path d="M750,560 L750,480 L760,450 L770,480 L770,560 L750,560 Z" fill="#0A1525"/>

  <!-- Windows -->
  <rect x="560" y="420" width="10" height="15" fill="#FFC940" opacity="0.6"/>
  <rect x="580" y="420" width="10" height="15" fill="#FFC940" opacity="0.6"/>
  <rect x="440" y="500" width="8" height="12" fill="#FFC940" opacity="0.6"/>
  <rect x="580" y="450" width="10" height="15" fill="#FFC940" opacity="0.6"/>
  <rect x="525" y="440" width="8" height="12" fill="#FFC940" opacity="0.6"/>
  <rect x="635" y="470" width="8" height="12" fill="#FFC940" opacity="0.6"/>
  <rect x="695" y="450" width="8" height="12" fill="#FFC940" opacity="0.6"/>
  <rect x="755" y="500" width="8" height="12" fill="#FFC940" opacity="0.6"/>
  <rect x="460" y="510" width="8" height="12" fill="#FFC940" opacity="0.6"/>
  <rect x="530" y="460" width="8" height="12" fill="#FFC940" opacity="0.6"/>
  <rect x="585" y="440" width="8" height="12" fill="#FFC940" opacity="0.6"/>
  <rect x="645" y="490" width="8" height="12" fill="#FFC940" opacity="0.6"/>
  <rect x="705" y="470" width="8" height="12" fill="#FFC940" opacity="0.6"/>
  <rect x="765" y="520" width="8" height="12" fill="#FFC940" opacity="0.6"/>
</svg> 