<svg xmlns="http://www.w3.org/2000/svg" width="100%" height="100%" viewBox="0 0 1920 1080" preserveAspectRatio="xMidYMid slice">
  <!-- Dark magical background with purple gradients -->
  <defs>
    <radialGradient id="magicalGlow" cx="50%" cy="50%" r="70%" fx="50%" fy="50%">
      <stop offset="0%" style="stop-color:#5e0e7b;stop-opacity:0.8" />
      <stop offset="70%" style="stop-color:#1a0529;stop-opacity:0.9" />
      <stop offset="100%" style="stop-color:#0c0212;stop-opacity:1" />
    </radialGradient>
    <filter id="glow" x="-20%" y="-20%" width="140%" height="140%">
      <feGaussianBlur stdDeviation="10" result="blur" />
      <feComposite in="SourceGraphic" in2="blur" operator="over" />
    </filter>
  </defs>
  
  <!-- Main Background - covering the entire viewport -->
  <rect width="100%" height="100%" fill="url(#magicalGlow)" />
  
  <!-- Magical Stars -->
  <g fill="#f5c542" opacity="0.7">
    <circle cx="150" cy="120" r="1.5">
      <animate attributeName="opacity" values="0.3;0.8;0.3" dur="3s" repeatCount="indefinite" />
    </circle>
    <circle cx="450" cy="320" r="1">
      <animate attributeName="opacity" values="0.2;0.7;0.2" dur="4s" repeatCount="indefinite" />
    </circle>
    <circle cx="750" cy="220" r="1.2">
      <animate attributeName="opacity" values="0.3;0.9;0.3" dur="3.5s" repeatCount="indefinite" />
    </circle>
    <circle cx="1050" cy="420" r="1">
      <animate attributeName="opacity" values="0.2;0.6;0.2" dur="4.5s" repeatCount="indefinite" />
    </circle>
    <circle cx="1350" cy="150" r="1.3">
      <animate attributeName="opacity" values="0.3;0.7;0.3" dur="3.7s" repeatCount="indefinite" />
    </circle>
    <circle cx="1650" cy="350" r="1.1">
      <animate attributeName="opacity" values="0.2;0.8;0.2" dur="4.2s" repeatCount="indefinite" />
    </circle>
    <circle cx="250" cy="600" r="1.2">
      <animate attributeName="opacity" values="0.3;0.8;0.3" dur="3.3s" repeatCount="indefinite" />
    </circle>
    <circle cx="550" cy="700" r="1">
      <animate attributeName="opacity" values="0.2;0.7;0.2" dur="4.7s" repeatCount="indefinite" />
    </circle>
    <circle cx="850" cy="650" r="1.4">
      <animate attributeName="opacity" values="0.3;0.9;0.3" dur="3.9s" repeatCount="indefinite" />
    </circle>
    <circle cx="1150" cy="750" r="1">
      <animate attributeName="opacity" values="0.2;0.6;0.2" dur="4.3s" repeatCount="indefinite" />
    </circle>
    <circle cx="1450" cy="570" r="1.3">
      <animate attributeName="opacity" values="0.3;0.7;0.3" dur="3.2s" repeatCount="indefinite" />
    </circle>
    <circle cx="1750" cy="680" r="1.1">
      <animate attributeName="opacity" values="0.2;0.8;0.2" dur="4.8s" repeatCount="indefinite" />
    </circle>
  </g>
  
  <!-- Harry Potter Elements -->
  <g opacity="0.2" filter="url(#glow)">
    <!-- Hogwarts Castle Silhouette -->
    <path d="M960,1080 L960,780 L940,780 L940,760 L920,760 L920,740 L900,730 L880,740 L880,760 L860,760 L860,780 L840,780 L840,740 L820,720 L800,740 L800,780 L780,780 L780,680 L760,650 L740,680 L740,780 L720,780 L720,760 L700,740 L680,760 L680,780 L660,780 L660,880 L1260,880 L1260,780 L1240,780 L1240,760 L1220,740 L1200,760 L1200,780 L1180,780 L1180,680 L1160,650 L1140,680 L1140,780 L1120,780 L1120,740 L1100,720 L1080,740 L1080,780 L1060,780 L1060,760 L1040,740 L1020,760 L1020,780 L1000,780 L1000,730 L980,720 L960,730 Z" 
          fill="#2c0842" />
    
    <!-- Deathly Hallows Symbol -->
    <g transform="translate(960, 300) scale(1.5)">
      <path d="M0,-150 L130,75 L-130,75 Z" fill="none" stroke="#f5c542" stroke-width="2" />
      <circle cx="0" cy="0" r="20" fill="none" stroke="#f5c542" stroke-width="2" />
      <line x1="0" y1="-150" x2="0" y2="75" stroke="#f5c542" stroke-width="2" />
    </g>
    
    <!-- Flying Broomstick -->
    <g transform="translate(300, 400) rotate(30)">
      <path d="M-100,0 L100,0" stroke="#9c6b2d" stroke-width="6" />
      <path d="M100,0 C120,-10 130,-5 140,0 C130,5 120,10 100,0" fill="#9c6b2d" />
      <path d="M-100,0 C-120,-15 -140,-20 -180,-20 C-140,-10 -120,-5 -100,0" fill="#b28e5e" />
      <path d="M-100,0 C-120,15 -140,20 -180,20 C-140,10 -120,5 -100,0" fill="#b28e5e" />
    </g>
    
    <!-- Wizard Hat -->
    <g transform="translate(1600, 400)">
      <path d="M0,0 L60,180 L-60,180 Z" fill="#34126f" />
      <path d="M-40,120 L40,120" stroke="#f5c542" stroke-width="3" />
      <path d="M-30,100 C-20,90 20,90 30,100" stroke="#f5c542" stroke-width="2" fill="none" />
      <circle cx="0" cy="80" r="5" fill="#f5c542" />
    </g>
    
    <!-- Magic Wand -->
    <g transform="translate(400, 800) rotate(-20)">
      <path d="M0,0 L140,0" stroke="#5a3618" stroke-width="4" />
      <circle cx="0" cy="0" r="6" fill="#f5c542">
        <animate attributeName="r" values="5;8;5" dur="2s" repeatCount="indefinite" />
        <animate attributeName="opacity" values="0.6;1;0.6" dur="2s" repeatCount="indefinite" />
      </circle>
    </g>
    
    <!-- Lightning Bolt (Harry's Scar) -->
    <path d="M1500,600 L1520,650 L1490,670 L1510,720" stroke="#f5c542" stroke-width="6" stroke-linecap="round" stroke-linejoin="round" fill="none">
      <animate attributeName="opacity" values="0.4;0.8;0.4" dur="3s" repeatCount="indefinite" />
    </path>
    
    <!-- Owl -->
    <g transform="translate(1200, 250)">
      <ellipse cx="0" cy="0" rx="25" ry="35" fill="#e5e5e5" />
      <circle cx="-10" cy="-5" r="5" fill="#000" />
      <circle cx="10" cy="-5" r="5" fill="#000" />
      <path d="M-5,10 C0,15 5,10 5,10" stroke="#f6ad55" stroke-width="2" fill="none" />
      <path d="M-30,-15 L-40,-30 M30,-15 L40,-30" stroke="#e5e5e5" stroke-width="4" />
    </g>
  </g>
  
  <!-- Magical Clouds -->
  <g fill="#5e0e7b" opacity="0.15">
    <ellipse cx="400" cy="200" rx="300" ry="100">
      <animate attributeName="cy" values="200;220;200" dur="20s" repeatCount="indefinite" />
    </ellipse>
    <ellipse cx="1200" cy="300" rx="400" ry="120">
      <animate attributeName="cy" values="300;320;300" dur="25s" repeatCount="indefinite" />
    </ellipse>
    <ellipse cx="800" cy="900" rx="450" ry="100">
      <animate attributeName="cy" values="900;880;900" dur="22s" repeatCount="indefinite" />
    </ellipse>
    <ellipse cx="1600" cy="800" rx="350" ry="90">
      <animate attributeName="cy" values="800;820;800" dur="18s" repeatCount="indefinite" />
    </ellipse>
  </g>
</svg> 