<svg xmlns="http://www.w3.org/2000/svg" width="48" height="48" viewBox="0 0 48 48">
  <!-- Quill Pen - Harry Potter Style -->
  
  <!-- Feather Shaft -->
  <path d="M15,40 C15,40 16,30 18,25 C20,20 22,15 25,10 C28,5 32,2 35,2" 
        fill="none" stroke="#f5c542" stroke-width="1.5" stroke-linecap="round" />
  
  <!-- Feather Barbs -->
  <g stroke="#f5c542" stroke-width="1" opacity="0.9">
    <!-- Right Side Barbs -->
    <path d="M26,9 L30,5" />
    <path d="M24,13 L29,8" />
    <path d="M22,17 L28,11" />
    <path d="M20,21 L27,14" />
    <path d="M19,25 L25,19" />
    <path d="M18,29 L22,25" />
    
    <!-- Left Side Barbs -->
    <path d="M24,10 L20,6" />
    <path d="M22,14 L18,10" />
    <path d="M20,18 L16,14" />
    <path d="M19,22 L15,18" />
    <path d="M18,26 L15,23" />
    <path d="M17,30 L14,27" />
  </g>
  
  <!-- Quill Tip -->
  <path d="M15,40 L10,45 L8,44 L12,40" fill="#d6d6d6" stroke="#9c59b6" stroke-width="1" />
  
  <!-- Ink Droplet -->
  <circle cx="9" cy="44" r="1" fill="#5e0e7b">
    <animate attributeName="opacity" values="0;1;0" dur="2s" repeatCount="indefinite" />
  </circle>
  
  <!-- Magical Sparkles -->
  <g fill="#f5c542" opacity="0.8">
    <circle cx="35" cy="2" r="1">
      <animate attributeName="r" values="0.5;1.5;0.5" dur="1.5s" repeatCount="indefinite" />
    </circle>
    <circle cx="29" cy="8" r="0.8">
      <animate attributeName="r" values="0.4;1;0.4" dur="2s" repeatCount="indefinite" />
    </circle>
    <circle cx="24" cy="14" r="0.6">
      <animate attributeName="r" values="0.3;0.8;0.3" dur="2.5s" repeatCount="indefinite" />
    </circle>
  </g>
</svg> 